<svg width="35" height="35" viewBox="0 0 35 35" fill="none" xmlns="http://www.w3.org/2000/svg">
<path d="M17.4996 0C7.83494 0 0 7.83494 0 17.4996C0 25.7063 5.65029 32.5927 13.2724 34.4841V22.8475H9.66401V17.4996H13.2724V15.1953C13.2724 9.23911 15.9681 6.47837 21.8158 6.47837C22.9245 6.47837 24.8376 6.69607 25.6202 6.91306V11.7605C25.2072 11.7171 24.4897 11.6954 23.5986 11.6954C20.7294 11.6954 19.6206 12.7824 19.6206 15.6083V17.4996H25.3367L24.3546 22.8475H19.6206V34.8712C28.2857 33.8247 35 26.4469 35 17.4996C34.9993 7.83494 27.1644 0 17.4996 0Z" fill="white"/>
</svg>
