<svg width="35" height="35" viewBox="0 0 35 35" fill="none" xmlns="http://www.w3.org/2000/svg">
<path d="M17.5103 3.15198C22.1888 3.15198 22.7428 3.17249 24.5828 3.25454C26.2927 3.32975 27.2161 3.61692 27.8317 3.85622C28.6457 4.17074 29.2339 4.55362 29.8427 5.16214C30.4583 5.7775 30.8345 6.35866 31.1491 7.1723C31.3885 7.78765 31.6758 8.71752 31.751 10.42C31.8331 12.2661 31.8536 12.8199 31.8536 17.4897C31.8536 22.1664 31.8331 22.7203 31.751 24.5595C31.6758 26.2688 31.3885 27.1918 31.1491 27.8072C30.8345 28.6208 30.4514 29.2088 29.8427 29.8174C29.2271 30.4327 28.6457 30.8088 27.8317 31.1233C27.2161 31.3626 26.2859 31.6497 24.5828 31.7249C22.736 31.807 22.1819 31.8275 17.5103 31.8275C12.8317 31.8275 12.2777 31.807 10.4378 31.7249C8.72777 31.6497 7.80438 31.3626 7.18878 31.1233C6.37483 30.8088 5.78659 30.4259 5.17784 29.8174C4.56224 29.202 4.18605 28.6208 3.87141 27.8072C3.63201 27.1918 3.34473 26.262 3.26949 24.5595C3.18741 22.7134 3.16689 22.1596 3.16689 17.4897C3.16689 12.8131 3.18741 12.2592 3.26949 10.42C3.34473 8.71069 3.63201 7.78765 3.87141 7.1723C4.18605 6.35866 4.56908 5.77066 5.17784 5.16214C5.79343 4.54679 6.37483 4.17074 7.18878 3.85622C7.80438 3.61692 8.73461 3.32975 10.4378 3.25454C12.2777 3.17249 12.8317 3.15198 17.5103 3.15198ZM17.5103 0C12.7565 0 12.1614 0.0205118 10.2941 0.102559C8.43365 0.184606 7.15458 0.485446 6.04651 0.916195C4.89056 1.36745 3.91245 1.9623 2.94118 2.94003C1.96306 3.91092 1.36799 4.88865 0.916553 6.03731C0.485636 7.15179 0.184679 8.42352 0.102599 10.2833C0.0205198 12.1567 0 12.7515 0 17.5034C0 22.2553 0.0205198 22.8502 0.102599 24.7167C0.184679 26.5765 0.485636 27.8551 0.916553 28.9627C1.36799 30.1182 1.96306 31.0959 2.94118 32.0668C3.91245 33.0377 4.89056 33.6394 6.03967 34.0838C7.15458 34.5146 8.42681 34.8154 10.2873 34.8974C12.1546 34.9795 12.7497 35 17.5034 35C22.2572 35 22.8523 34.9795 24.7196 34.8974C26.58 34.8154 27.8591 34.5146 28.9672 34.0838C30.1163 33.6394 31.0944 33.0377 32.0657 32.0668C33.0369 31.0959 33.6389 30.1182 34.0834 28.9695C34.5144 27.8551 34.8153 26.5833 34.8974 24.7236C34.9795 22.857 35 22.2622 35 17.5103C35 12.7584 34.9795 12.1635 34.8974 10.2969C34.8153 8.4372 34.5144 7.15863 34.0834 6.05099C33.6525 4.88865 33.0575 3.91092 32.0793 2.94003C31.1081 1.96913 30.13 1.36745 28.9808 0.923032C27.8659 0.492284 26.5937 0.191444 24.7332 0.109396C22.8591 0.0205118 22.264 0 17.5103 0Z" fill="white"/>
<path d="M17.5103 8.5124C12.5445 8.5124 8.51573 12.5396 8.51573 17.5034C8.51573 22.4673 12.5445 26.4944 17.5103 26.4944C22.4761 26.4944 26.5048 22.4673 26.5048 17.5034C26.5048 12.5396 22.4761 8.5124 17.5103 8.5124ZM17.5103 23.3356C14.2886 23.3356 11.6758 20.7238 11.6758 17.5034C11.6758 14.2831 14.2886 11.6712 17.5103 11.6712C20.7319 11.6712 23.3447 14.2831 23.3447 17.5034C23.3447 20.7238 20.7319 23.3356 17.5103 23.3356Z" fill="white"/>
<path d="M28.9603 8.15687C28.9603 9.31921 28.0164 10.2559 26.8605 10.2559C25.6977 10.2559 24.7606 9.31237 24.7606 8.15687C24.7606 6.99453 25.7045 6.05782 26.8605 6.05782C28.0164 6.05782 28.9603 7.00137 28.9603 8.15687Z" fill="white"/>
</svg>
