<svg width="173" height="47" viewBox="0 0 173 47" fill="none" xmlns="http://www.w3.org/2000/svg">
<path d="M72.84 32L77.256 14.48H81.12L85.56 32H82.488L81.528 27.752H76.872L75.912 32H72.84ZM77.424 25.304H80.976L79.92 20.6C79.744 19.816 79.592 19.112 79.464 18.488C79.336 17.848 79.248 17.384 79.2 17.096C79.152 17.384 79.064 17.848 78.936 18.488C78.824 19.112 78.672 19.808 78.48 20.576L77.424 25.304ZM88.2386 32V18.8H91.1666V21.32H91.9826L91.1666 22.016C91.1666 20.928 91.4786 20.08 92.1026 19.472C92.7426 18.864 93.6146 18.56 94.7186 18.56C96.0146 18.56 97.0466 18.992 97.8146 19.856C98.5986 20.72 98.9906 21.88 98.9906 23.336V32H95.9906V23.648C95.9906 22.848 95.7826 22.232 95.3666 21.8C94.9506 21.368 94.3666 21.152 93.6146 21.152C92.8786 21.152 92.2946 21.376 91.8626 21.824C91.4466 22.272 91.2386 22.912 91.2386 23.744V32H88.2386ZM108.005 32.24C106.885 32.24 105.909 32.024 105.077 31.592C104.245 31.16 103.597 30.56 103.133 29.792C102.685 29.008 102.461 28.096 102.461 27.056V23.744C102.461 22.704 102.685 21.8 103.133 21.032C103.597 20.248 104.245 19.64 105.077 19.208C105.909 18.776 106.885 18.56 108.005 18.56C109.109 18.56 110.069 18.776 110.885 19.208C111.717 19.64 112.357 20.248 112.805 21.032C113.269 21.8 113.501 22.704 113.501 23.744V26.12H105.365V27.056C105.365 27.984 105.589 28.688 106.037 29.168C106.485 29.632 107.149 29.864 108.029 29.864C108.701 29.864 109.245 29.752 109.661 29.528C110.077 29.288 110.341 28.944 110.453 28.496H113.405C113.181 29.632 112.573 30.544 111.581 31.232C110.605 31.904 109.413 32.24 108.005 32.24ZM110.597 24.44V23.72C110.597 22.808 110.381 22.112 109.949 21.632C109.517 21.136 108.869 20.888 108.005 20.888C107.141 20.888 106.485 21.136 106.037 21.632C105.589 22.128 105.365 22.832 105.365 23.744V24.248L110.813 24.2L110.597 24.44ZM121.868 32.216C120.86 32.216 119.98 32.056 119.228 31.736C118.476 31.416 117.884 30.976 117.452 30.416C117.036 29.84 116.812 29.168 116.78 28.4H119.78C119.812 28.816 120.012 29.152 120.38 29.408C120.764 29.664 121.26 29.792 121.868 29.792H122.924C123.66 29.792 124.212 29.648 124.58 29.36C124.948 29.072 125.132 28.68 125.132 28.184C125.132 27.72 124.964 27.36 124.628 27.104C124.308 26.832 123.804 26.656 123.116 26.576L121.484 26.336C119.98 26.128 118.876 25.728 118.172 25.136C117.468 24.544 117.116 23.656 117.116 22.472C117.116 21.24 117.532 20.288 118.364 19.616C119.196 18.928 120.42 18.584 122.036 18.584H122.948C124.42 18.584 125.596 18.912 126.476 19.568C127.356 20.224 127.828 21.104 127.892 22.208H124.892C124.844 21.856 124.644 21.568 124.292 21.344C123.956 21.12 123.508 21.008 122.948 21.008H122.036C121.348 21.008 120.844 21.136 120.524 21.392C120.22 21.632 120.068 21.992 120.068 22.472C120.068 22.92 120.204 23.256 120.476 23.48C120.748 23.688 121.188 23.84 121.796 23.936L123.5 24.176C125.068 24.4 126.22 24.824 126.956 25.448C127.708 26.056 128.084 26.96 128.084 28.16C128.084 29.44 127.644 30.44 126.764 31.16C125.9 31.864 124.62 32.216 122.924 32.216H121.868ZM138.203 32C136.939 32 135.947 31.648 135.227 30.944C134.523 30.24 134.171 29.272 134.171 28.04V21.512H130.595V18.8H134.171V15.08H137.195V18.8H142.259V21.512H137.195V28.04C137.195 28.872 137.603 29.288 138.419 29.288H142.019V32H138.203ZM151.153 32.24C150.033 32.24 149.057 32.032 148.225 31.616C147.409 31.184 146.777 30.584 146.329 29.816C145.897 29.032 145.681 28.112 145.681 27.056V19.424C145.681 18.368 145.897 17.456 146.329 16.688C146.777 15.904 147.409 15.304 148.225 14.888C149.057 14.456 150.033 14.24 151.153 14.24C152.289 14.24 153.265 14.456 154.081 14.888C154.897 15.304 155.521 15.904 155.953 16.688C156.401 17.456 156.625 18.36 156.625 19.4V27.056C156.625 28.112 156.401 29.032 155.953 29.816C155.521 30.584 154.897 31.184 154.081 31.616C153.265 32.032 152.289 32.24 151.153 32.24ZM151.153 29.6C151.969 29.6 152.585 29.384 153.001 28.952C153.417 28.504 153.625 27.872 153.625 27.056V19.424C153.625 18.592 153.417 17.96 153.001 17.528C152.585 17.096 151.969 16.88 151.153 16.88C150.337 16.88 149.721 17.096 149.305 17.528C148.889 17.96 148.681 18.592 148.681 19.424V27.056C148.681 27.872 148.889 28.504 149.305 28.952C149.737 29.384 150.353 29.6 151.153 29.6ZM160.192 32V18.8H163.12V21.32H163.936L163.12 22.016C163.12 20.928 163.432 20.08 164.056 19.472C164.696 18.864 165.568 18.56 166.672 18.56C167.968 18.56 169 18.992 169.768 19.856C170.552 20.72 170.944 21.88 170.944 23.336V32H167.944V23.648C167.944 22.848 167.736 22.232 167.32 21.8C166.904 21.368 166.32 21.152 165.568 21.152C164.832 21.152 164.248 21.376 163.816 21.824C163.4 22.272 163.192 22.912 163.192 23.744V32H160.192Z" fill="white"/>
<path fill-rule="evenodd" clip-rule="evenodd" d="M23.1 1.62069C21.9284 1.62069 20.9786 2.55361 20.9786 3.70443C20.9786 4.85525 21.9284 5.78818 23.1 5.78818C24.2716 5.78818 25.2214 4.85525 25.2214 3.70443C25.2214 2.55361 24.2716 1.62069 23.1 1.62069ZM19.3286 3.70443C19.3286 1.65853 21.0171 0 23.1 0C24.8146 0 26.262 1.12388 26.7202 2.66256H37.1584C37.6166 1.12388 39.064 0 40.7786 0C42.8615 0 44.55 1.65853 44.55 3.70443C44.55 3.91276 44.5325 4.11706 44.4988 4.31601L50.9385 7.47865C51.6289 6.72508 52.6295 6.25123 53.7429 6.25123C55.8258 6.25123 57.5143 7.90976 57.5143 9.95566C57.5143 10.7155 57.2814 11.4218 56.8819 12.0097L60.5742 16.3499C61.0737 16.11 61.6351 15.9754 62.2286 15.9754C64.3115 15.9754 66 17.6339 66 19.6798C66 21.7257 64.3115 23.3842 62.2286 23.3842C62.0898 23.3842 61.9527 23.3769 61.8178 23.3625L58.2725 29.5584C58.8288 30.2038 59.1643 31.0388 59.1643 31.9507C59.1643 33.9966 57.4758 35.6552 55.3929 35.6552C53.6579 35.6552 52.1965 34.5044 51.7567 32.9376L42.4276 33.7173C42.4282 33.7458 42.4286 33.7743 42.4286 33.803C42.4286 35.8489 40.74 37.5074 38.6571 37.5074C37.8926 37.5074 37.1812 37.284 36.587 36.8999L30.8043 41.8225C31.0037 42.274 31.1143 42.7721 31.1143 43.2956C31.1143 45.3415 29.4258 47 27.3429 47C25.7155 47 24.3288 45.9876 23.8002 44.569H15.5894C14.9557 45.7397 13.7012 46.5369 12.2571 46.5369C10.1742 46.5369 8.48571 44.8784 8.48571 42.8325C8.48571 41.9817 8.77773 41.1979 9.26869 40.5725L5.04215 34.3563C4.71327 34.4483 4.36606 34.4975 4.00714 34.4975C1.92424 34.4975 0.235714 32.839 0.235714 30.7931C0.235714 29.1205 1.36432 27.7067 2.91434 27.2466L2.74662 22.5513C1.16172 22.1127 0 20.6822 0 18.9852C0 16.9393 1.68853 15.2808 3.77143 15.2808C4.33771 15.2808 4.87485 15.4034 5.35682 15.623L9.56654 11.0494C9.18111 10.4684 8.95714 9.77468 8.95714 9.02956C8.95714 6.98365 10.6457 5.32512 12.7286 5.32512C13.7453 5.32512 14.668 5.72028 15.3463 6.36276L19.3671 4.23614C19.3417 4.06251 19.3286 3.88498 19.3286 3.70443ZM19.9631 5.76164L16.258 7.72123C16.4144 8.12804 16.5 8.56898 16.5 9.02956C16.5 9.48762 16.4154 9.92627 16.2606 10.3312L23.0221 14.7672C23.6791 14.221 24.529 13.8916 25.4571 13.8916C26.1864 13.8916 26.8673 14.0949 27.4444 14.447L31.5033 10.7486L25.6851 6.40174C25.01 7.0262 24.1005 7.40887 23.1 7.40887C21.792 7.40887 20.6396 6.75487 19.9631 5.76164ZM26.6118 5.05784L32.7313 9.62976L37.4081 5.36836C37.236 5.03269 37.1143 4.66778 37.0529 4.28325H26.8257C26.7827 4.55214 26.7103 4.81143 26.6118 5.05784ZM38.4565 6.62369L34.0643 10.6257L41.436 16.1331C41.7586 15.8701 42.1267 15.6589 42.5268 15.5126L40.8859 7.4074C40.8503 7.40837 40.8145 7.40887 40.7786 7.40887C39.9028 7.40887 39.0967 7.11564 38.4565 6.62369ZM42.4873 7.00772L44.1649 15.2941C44.9048 15.3556 45.5838 15.6268 46.1401 16.0471L50.4719 11.801C50.1535 11.2577 49.9714 10.6276 49.9714 9.95566C49.9714 9.58633 50.0265 9.22962 50.1289 8.89302L43.8741 5.82116C43.5196 6.32032 43.0432 6.72973 42.4873 7.00772ZM51.5882 12.9964L47.2008 17.2971C47.4651 17.8033 47.6143 18.3772 47.6143 18.9852C47.6143 19.6983 47.4092 20.3643 47.0537 20.9294L50.8176 25.4005L58.6192 20.7575C58.5138 20.4165 58.4571 20.0546 58.4571 19.6798C58.4571 18.803 58.7673 17.9973 59.2857 17.3628L55.6859 13.1313C55.1184 13.467 54.4536 13.6601 53.7429 13.6601C52.9418 13.6601 52.199 13.4148 51.5882 12.9964ZM59.4341 22.1675L51.8804 26.663L53.5914 28.6954C54.1267 28.409 54.7404 28.2463 55.3929 28.2463C55.9456 28.2463 56.4706 28.3631 56.9436 28.573L60.2333 22.8239C59.9367 22.642 59.6678 22.4207 59.4341 22.1675ZM52.3491 29.763L50.454 27.5119L42.8144 32.0584L51.6763 31.3178C51.7769 30.7435 52.0122 30.2144 52.3491 29.763ZM41.2379 31.1017L49.3912 26.2494L45.8936 22.0946C45.3033 22.471 44.5991 22.6897 43.8429 22.6897C43.7392 22.6897 43.6365 22.6855 43.5349 22.6775L40.7683 30.7328C40.9348 30.8435 41.0918 30.9669 41.2379 31.1017ZM39.2302 30.141L41.9592 22.1952C41.5085 21.9395 41.1167 21.5949 40.8087 21.1858L24.7333 27.4324C24.7444 27.5479 24.75 27.6649 24.75 27.7833C24.75 28.0402 24.7234 28.2911 24.6726 28.5333L35.6462 31.5719C36.3346 30.6769 37.4271 30.0985 38.6571 30.0985C38.852 30.0985 39.0433 30.113 39.2302 30.141ZM34.9604 33.0658L23.9808 30.0256C23.2919 30.9142 22.2034 31.4877 20.9786 31.4877C20.5972 31.4877 20.2291 31.4321 19.8821 31.3287L18.6587 33.5638L24.9537 40.4291C25.6042 39.9054 26.4362 39.5911 27.3429 39.5911C28.2948 39.5911 29.1643 39.9375 29.828 40.509L35.4378 35.7336C35.0876 35.1714 34.8857 34.5103 34.8857 33.803C34.8857 33.5506 34.9114 33.304 34.9604 33.0658ZM23.9245 41.7284L17.8286 35.0803L14.9854 40.2748C15.6317 40.9398 16.0286 41.8406 16.0286 42.8325C16.0286 42.8712 16.028 42.9098 16.0268 42.9483H23.5878C23.6287 42.5158 23.7454 42.1049 23.9245 41.7284ZM13.6061 39.3721L16.6556 33.8009L13.2284 30.0633L7.76775 31.0758C7.69133 32.0706 7.21489 32.9557 6.49602 33.5764L10.5447 39.5311C11.0586 39.2734 11.6406 39.1281 12.2571 39.1281C12.7325 39.1281 13.1873 39.2145 13.6061 39.3721ZM7.53105 29.4704L11.9359 28.6537L5.88447 22.0541C5.44676 22.3454 4.94341 22.5488 4.40074 22.6383L4.56114 27.1284C5.9256 27.3256 7.05233 28.2407 7.53105 29.4704ZM7.01907 20.8697L13.8338 28.3018L17.2087 27.676C17.2665 25.6797 18.9322 24.0788 20.9786 24.0788C21.2104 24.0788 21.4373 24.0994 21.6576 24.1387L23.2208 20.5793C22.5345 20.0821 22.026 19.3619 21.806 18.5276L7.47255 19.7008C7.389 20.1201 7.23346 20.514 7.01907 20.8697ZM7.42896 18.0781L21.7511 16.9058C21.8078 16.6103 21.9002 16.3273 22.0237 16.0611L15.3562 11.6869C14.6771 12.3349 13.7503 12.734 12.7286 12.734C12.002 12.734 11.3235 12.5322 10.7479 12.1826L6.66907 16.614C7.02534 17.0335 7.28894 17.5317 7.42896 18.0781ZM24.7311 21.2319L23.1762 24.7724C23.5974 25.0695 23.9537 25.4498 24.2202 25.8888L40.142 19.702C40.1146 19.565 40.095 19.4254 40.0835 19.2835L29.0619 18.6886C28.5872 20.2012 27.1529 21.3005 25.4571 21.3005C25.2088 21.3005 24.9661 21.2769 24.7311 21.2319ZM29.1912 17.0725L40.3149 17.6729C40.3487 17.5852 40.3858 17.4992 40.4261 17.4149L32.8364 11.7446L28.6237 15.5831C28.9147 16.0239 29.1129 16.5292 29.1912 17.0725ZM17.522 29.2673L15.1263 29.7114L17.4856 32.2845L18.4466 30.5288C18.0543 30.1795 17.7372 29.7503 17.522 29.2673ZM14.401 7.74737L14.7403 8.36641C14.8115 8.57472 14.85 8.79772 14.85 9.02956C14.85 10.1804 13.9002 11.1133 12.7286 11.1133C11.5569 11.1133 10.6071 10.1804 10.6071 9.02956C10.6071 7.87874 11.5569 6.94581 12.7286 6.94581C13.4079 6.94581 14.0127 7.25946 14.401 7.74737ZM40.7786 1.62069C39.6069 1.62069 38.6571 2.55361 38.6571 3.70443C38.6571 4.85525 39.6069 5.78818 40.7786 5.78818C41.9502 5.78818 42.9 4.85525 42.9 3.70443C42.9 2.55361 41.9502 1.62069 40.7786 1.62069ZM53.7429 7.87192C52.5712 7.87192 51.6214 8.80484 51.6214 9.95566C51.6214 11.1065 52.5712 12.0394 53.7429 12.0394C54.9145 12.0394 55.8643 11.1065 55.8643 9.95566C55.8643 8.80484 54.9145 7.87192 53.7429 7.87192ZM25.4571 15.5123C24.2855 15.5123 23.3357 16.4452 23.3357 17.5961C23.3357 18.7469 24.2855 19.6798 25.4571 19.6798C26.6288 19.6798 27.5786 18.7469 27.5786 17.5961C27.5786 16.4452 26.6288 15.5123 25.4571 15.5123ZM3.77143 16.9015C2.5998 16.9015 1.65 17.8344 1.65 18.9852C1.65 20.136 2.5998 21.069 3.77143 21.069C4.94306 21.069 5.89286 20.136 5.89286 18.9852C5.89286 17.8344 4.94306 16.9015 3.77143 16.9015ZM43.8429 16.9015C42.6712 16.9015 41.7214 17.8344 41.7214 18.9852C41.7214 20.136 42.6712 21.069 43.8429 21.069C45.0145 21.069 45.9643 20.136 45.9643 18.9852C45.9643 17.8344 45.0145 16.9015 43.8429 16.9015ZM62.2286 17.5961C61.0569 17.5961 60.1071 18.529 60.1071 19.6798C60.1071 20.8306 61.0569 21.7635 62.2286 21.7635C63.4002 21.7635 64.35 20.8306 64.35 19.6798C64.35 18.529 63.4002 17.5961 62.2286 17.5961ZM20.9786 25.6995C19.8069 25.6995 18.8571 26.6324 18.8571 27.7833C18.8571 28.9341 19.8069 29.867 20.9786 29.867C22.1502 29.867 23.1 28.9341 23.1 27.7833C23.1 26.6324 22.1502 25.6995 20.9786 25.6995ZM4.00714 28.7094C2.83551 28.7094 1.88571 29.6423 1.88571 30.7931C1.88571 31.9439 2.83551 32.8768 4.00714 32.8768C5.17878 32.8768 6.12857 31.9439 6.12857 30.7931C6.12857 29.6423 5.17878 28.7094 4.00714 28.7094ZM55.3929 29.867C54.2212 29.867 53.2714 30.7999 53.2714 31.9507C53.2714 33.1016 54.2212 34.0345 55.3929 34.0345C56.5645 34.0345 57.5143 33.1016 57.5143 31.9507C57.5143 30.7999 56.5645 29.867 55.3929 29.867ZM38.6571 31.7192C37.4855 31.7192 36.5357 32.6521 36.5357 33.803C36.5357 34.9538 37.4855 35.8867 38.6571 35.8867C39.8288 35.8867 40.7786 34.9538 40.7786 33.803C40.7786 32.6521 39.8288 31.7192 38.6571 31.7192ZM12.2571 40.7488C11.0855 40.7488 10.1357 41.6817 10.1357 42.8325C10.1357 43.9833 11.0855 44.9163 12.2571 44.9163C13.4288 44.9163 14.3786 43.9833 14.3786 42.8325C14.3786 41.6817 13.4288 40.7488 12.2571 40.7488ZM27.3429 41.2118C26.1712 41.2118 25.2214 42.1447 25.2214 43.2956C25.2214 44.4464 26.1712 45.3793 27.3429 45.3793C28.5145 45.3793 29.4643 44.4464 29.4643 43.2956C29.4643 42.1447 28.5145 41.2118 27.3429 41.2118Z" fill="white"/>
</svg>
