<svg width="35" height="36" viewBox="0 0 35 36" fill="none" xmlns="http://www.w3.org/2000/svg">
<path d="M0 35.167L2.47195 26.1364C0.946579 23.493 0.145064 20.4965 0.146529 17.4238C0.150925 7.81734 7.96827 0 17.5733 0C22.2344 0.00146529 26.6097 1.81696 29.9008 5.11094C33.1904 8.40492 35.0015 12.7832 35 17.4399C34.9956 27.0478 27.1783 34.8652 17.5733 34.8652C14.6573 34.8637 11.7839 34.1325 9.23868 32.7434L0 35.167ZM9.66654 29.5887C12.1224 31.0466 14.4668 31.9199 17.5674 31.9214C25.5503 31.9214 32.0533 25.4243 32.0577 17.437C32.0606 9.43356 25.5884 2.94524 17.5791 2.94231C9.59034 2.94231 3.09177 9.43942 3.08884 17.4253C3.08737 20.6855 4.04274 23.1267 5.64724 25.6807L4.18341 31.0261L9.66654 29.5887ZM26.3518 21.5823C26.2434 21.4006 25.9533 21.2922 25.5166 21.0738C25.0814 20.8555 22.9406 19.802 22.5406 19.6569C22.142 19.5118 21.8519 19.4386 21.5603 19.8752C21.2702 20.3104 20.435 21.2922 20.1815 21.5823C19.928 21.8724 19.673 21.9091 19.2378 21.6907C18.8026 21.4724 17.3989 21.0138 15.7358 19.5294C14.4419 18.3748 13.5672 16.949 13.3137 16.5124C13.0602 16.0772 13.2873 15.8413 13.5041 15.6244C13.7005 15.4295 13.9393 15.116 14.1577 14.861C14.3789 14.609 14.4507 14.4273 14.5973 14.1357C14.7423 13.8456 14.6705 13.5906 14.5606 13.3723C14.4507 13.1554 13.5803 11.0117 13.2184 10.1398C12.8638 9.29142 12.5048 9.40572 12.2381 9.39253L11.4029 9.37788C11.1128 9.37788 10.641 9.48631 10.2424 9.92297C9.84384 10.3596 8.7185 11.4117 8.7185 13.5554C8.7185 15.6992 10.279 17.7696 10.4959 18.0597C10.7142 18.3499 13.5657 22.7487 17.9337 24.6345C18.9726 25.0829 19.7844 25.351 20.4159 25.5518C21.4592 25.8829 22.4087 25.8361 23.159 25.7247C23.9956 25.6001 25.7349 24.6711 26.0983 23.6542C26.4617 22.6359 26.4617 21.764 26.3518 21.5823Z" fill="white"/>
</svg>
